<svg width="950" height="950" viewBox="0 0 950 950" fill="none" xmlns="http://www.w3.org/2000/svg">
<circle cx="475" cy="475" r="475" fill="black"/>
<path fill-rule="evenodd" clip-rule="evenodd" d="M327.293 548.322L380.831 456.935H570.773L624.311 548.322H570.773H517.235H434.369H380.831H327.293Z" fill="#FF9128"/>
<path fill-rule="evenodd" clip-rule="evenodd" d="M316.041 600.392C316.041 662.463 351.617 716.224 403.492 742.397C409.38 761.699 422.868 777.685 440.47 786.87C446.843 799.187 459.702 807.606 474.527 807.606C489.086 807.606 501.749 799.487 508.234 787.53C526.469 778.464 540.476 762.17 546.508 742.397C598.382 716.224 633.959 662.462 633.959 600.391L316.041 600.392Z" fill="#FF9128"/>
<path fill-rule="evenodd" clip-rule="evenodd" d="M369.568 395.883L261.284 581.336C243.529 611.745 204.484 622.002 174.075 604.247C143.667 586.491 133.409 547.447 151.165 517.038L302.674 257.556C320 178.328 390.573 119.016 475 119.016C557.938 119.016 627.507 176.254 646.36 253.383L800.512 517.39C818.267 547.799 808.009 586.844 777.601 604.599C747.192 622.354 708.147 612.097 690.392 581.688L581.902 395.883H369.568Z" fill="#FF9128"/>
</svg>
