<?xml version="1.0" encoding="utf-8"?>
<!-- Generator: Adobe Illustrator 19.2.1, SVG Export Plug-In . SVG Version: 6.00 Build 0)  -->
<svg version="1.1" id="layer" xmlns="http://www.w3.org/2000/svg" xmlns:xlink="http://www.w3.org/1999/xlink" x="0px" y="0px"
	 viewBox="0 0 652 652" style="enable-background:new 0 0 652 652;" xml:space="preserve">
<style type="text/css">
	.st0{fill:#C12736;}
	.st1{fill:#F7941E;}
	.st2{fill:#27AAE1;}
	.st3{fill:#8DC63F;}
</style>
<rect x="25.4" y="374.2" class="st0" width="32.4" height="19.4"/>
<rect x="25.4" y="354.7" width="32.4" height="19.4"/>
<rect x="25.4" y="335.3" class="st1" width="32.4" height="19.5"/>
<rect x="25.4" y="315.8" width="32.4" height="19.4"/>
<rect x="25.4" y="276.9" width="32.4" height="19.5"/>
<rect x="25.4" y="257.5" class="st2" width="32.4" height="19.4"/>
<rect x="25.4" y="296.4" class="st3" width="32.4" height="19.5"/>
<g>
	<path d="M202,294c3.9,0,5.3,0,6.3-0.4c0.7-0.2,3-1.4,3-5.1c0-3.6-1.4-4.3-2.5-4.8c-1.3-0.5-1.9-0.5-6.8-0.5V294z M193.8,277.1H206
		c5.4,0,8.3,1.2,10.3,2.9c2.3,2.1,3.4,5,3.4,8.7c0,5.7-3.2,8.4-4.8,9.4c-2.7,1.6-5.6,1.8-8.4,1.9l-4.4,0.1v13.8h-8.1V277.1z"/>
	<path d="M234.1,301.6c0,3.9,0.8,6.6,4.4,6.6c4.4,0,4.4-4.1,4.4-6.6v-12.8c0-2.6,0-5.7-4.3-5.7c-4.5,0-4.5,4.2-4.5,5.7V301.6z
		 M225.9,290.1c0-3.8,0.7-7.4,3.2-10.2c2.3-2.6,5.8-3.5,9.2-3.5c3.8,0,7.2,0.9,9.7,3.6c2.1,2.2,3.2,5.5,3.2,11.4v8.9
		c0,5.2-0.8,8.5-3.2,11c-3.1,3.3-7.5,3.7-9.8,3.7c-3.6,0-9.5-1.3-11.4-7.5c-0.8-2.6-0.9-5.8-0.9-7.4V290.1z"/>
	<polygon points="261.1,277.1 269.3,277.1 269.3,307.1 285.5,307.1 285.5,313.9 261.1,313.9 	"/>
	<path d="M297.6,313.9v-14.6L286,277.1h8.7l4.7,9.2c0.4,0.7,1.8,3.9,2.1,4.5h0.2c0.7-1.6,0.9-1.8,2.1-4.4l4.5-9.3h8.6l-11.1,22v14.8
		H297.6z"/>
	<polygon points="348.1,277.1 348.1,283.8 339,283.8 339,313.9 330.5,313.9 330.5,283.8 321.2,283.8 321.2,277.1 	"/>
	<polygon points="356.7,277.1 381.4,277.1 381.4,283.8 364.7,283.8 364.7,291.7 376.2,291.7 376.2,298.4 364.8,298.4 364.8,307.1 
		382.6,307.1 382.6,313.9 356.7,313.9 	"/>
	<path d="M390.9,289.5c0-8.4,4.5-13.2,13.1-13.2c2.2,0,5.5,0.5,8.1,2.5c3.3,2.6,3.7,7.1,3.8,10.1h-8.1c0-1.8-0.1-5.8-4.2-5.8
		c-1,0-2.3,0.4-3.1,1.2c-1.3,1.2-1.4,3-1.4,4v14c0,2,0,5.9,4.5,5.9c3.3,0,4.3-2.7,4.3-6.7h8.1c0,2.7-0.1,3-0.3,4.5
		c-0.3,1.5-0.8,4.1-3.9,6.6c-2.6,2.1-6.4,2.5-8,2.5c-4.3,0-7.2-1-9.5-3.3c-1.5-1.4-3.5-3.5-3.5-11.1V289.5z"/>
	<polygon points="426.7,277.1 434.8,277.1 434.8,291 445.2,291 445.2,277.1 453.4,277.1 453.4,313.9 445.3,313.9 445.3,298 
		434.9,298 434.9,313.9 426.7,313.9 	"/>
	<path d="M464.5,277.1h7.7l9.5,17.2c0.4,0.8,0.9,1.8,1.3,2.5c0.1,0.3,0.7,1.7,0.8,1.9h0.3l-0.2-3.7c-0.1-2.5-0.1-2.8-0.1-4.2v-13.7
		h7.4v36.8h-6.6l-9.8-17.9c-0.8-1.4-0.8-1.6-2.8-6.1h-0.2c0,1.1,0.2,5.7,0.2,6.7v17.3h-7.4V277.1z"/>
	<polygon points="500.8,313.9 500.8,310.7 505.1,310.7 505.1,280.3 500.8,280.3 500.8,277.1 517.6,277.1 517.6,280.3 513.2,280.3 
		513.2,310.6 517.6,310.6 517.6,313.9 	"/>
	<path d="M537.9,297.1c2,0.3,2.9,0.9,3.9,2c0.2,0.3,0.4,0.5,0.7,1v-11.1c0-2.7-0.2-5.7-4.4-5.7c-4.4,0-4.4,4.4-4.4,5.7v12.8
		c0,4,0.8,6.6,4.4,6.6c1.6,0,2.6-0.5,3.2-1.4c-1.2-1.9-1.8-2.4-3.4-2.9V297.1z M553.5,317.3c-1.5,0-2.5,0-4.1-0.7
		c-2.2-1.1-3.2-2.7-3.6-3.8c-2.8,1.9-6.1,2.2-8,2.2c-3.6,0-9.5-1.3-11.4-7.5c-0.8-2.6-0.9-5.8-0.9-7.4v-9.9c0-3.8,0.6-7.4,3.2-10.2
		c2.3-2.6,5.8-3.5,9.2-3.5c3.8,0,7.2,0.9,9.7,3.6c2.1,2.2,3.2,5.5,3.2,11.4v8.9c0,3.1-0.3,5.5-1.1,7.4c1.3,1.7,2.2,1.7,3.7,1.7
		V317.3z"/>
	<path d="M562.4,277.1h8.4v24.3c0,2.2,0,6.8,5,6.8c1.6,0,5.2,0,5.2-6.7v-24.3h8.2v24.4c0,2.2,0,7.5-3.8,10.6
		c-2.6,2.1-5.7,2.8-9.1,2.8c-3.9,0-7.8-0.9-10.1-3.1c-3.6-3.4-3.7-7.6-3.7-10.9V277.1z"/>
	<polygon points="599.6,277.1 624.3,277.1 624.3,283.8 607.6,283.8 607.6,291.7 619.1,291.7 619.1,298.4 607.7,298.4 607.7,307.1 
		625.4,307.1 625.4,313.9 599.6,313.9 	"/>
	<path d="M194,337.3h10.8l4.4,15.4c0.5,1.6,0.7,2.2,1.1,3.9c0.2,0.7,0.9,4,1.1,4.6h0.2c0.6-3.1,1.1-5.4,2-8.6l4.3-15.2h10.9v36.8
		h-7.1v-19.8c0-2.6,0.2-7,0.3-10.5h-0.2l-7.6,30.3h-5.6l-7.8-30.3h-0.2c0,1.7,0.3,9.2,0.3,10.7v19.6h-7V337.3z"/>
	<path d="M247,361.8c0,3.9,0.8,6.6,4.4,6.6c4.4,0,4.4-4.1,4.4-6.6v-12.8c0-2.6,0-5.7-4.3-5.7c-4.5,0-4.5,4.2-4.5,5.7V361.8z
		 M238.7,350.3c0-3.8,0.7-7.4,3.2-10.2c2.3-2.6,5.8-3.5,9.2-3.5c3.8,0,7.2,0.9,9.7,3.6c2.1,2.2,3.2,5.5,3.2,11.4v8.9
		c0,5.2-0.8,8.5-3.2,11c-3.1,3.3-7.5,3.7-9.8,3.7c-3.6,0-9.5-1.3-11.4-7.5c-0.8-2.6-1-5.8-1-7.4V350.3z"/>
	<path d="M275,337.3h7.7l9.5,17.2c0.4,0.8,0.9,1.8,1.3,2.5c0.2,0.3,0.7,1.7,0.8,1.9h0.2l-0.2-3.7c-0.1-2.5-0.1-2.8-0.1-4.2v-13.7
		h7.4v36.8h-6.6l-9.8-17.9c-0.8-1.5-0.9-1.6-2.8-6.1h-0.2c0,1.1,0.2,5.7,0.2,6.7v17.3H275V337.3z"/>
	<polygon points="338.2,337.3 338.2,344 329.1,344 329.1,374.1 320.6,374.1 320.6,344 311.2,344 311.2,337.3 	"/>
	<path d="M355.3,353.2c4.6,0,5.3,0,6.4-0.4c2.6-0.9,2.8-2.9,2.8-4.9c0-2.6-0.8-3.8-2.4-4.4c-1.2-0.5-2.2-0.5-6.8-0.5V353.2z
		 M355.3,374.1h-8v-36.8h11.9c6,0,13.5,0.8,13.5,10.7c0,4.7-1.9,8.2-7,9.8l8,16.4H365l-7-15h-2.7V374.1z"/>
	<path d="M403,326.9l-7.4,7.3h-5.1l4.7-7.3H403z M382.9,337.3h24.7v6.7H391v7.8h11.5v6.7h-11.4v8.7h17.8v6.9h-25.9V337.3z"/>
	<path d="M431.8,343.9h-0.2l-4,16.7h8.3L431.8,343.9z M436.5,337.3l10.6,36.8h-7.9l-1.9-7.3h-11.3l-1.9,7.3h-7.9l10.4-36.8H436.5z"
		/>
	<polygon points="455.3,337.3 463.5,337.3 463.5,367.3 479.7,367.3 479.7,374.1 455.3,374.1 	"/>
	<path d="M120.6,296.3C120.6,296.3,120.6,296.3,120.6,296.3c-0.2,0.2-0.5,0.4-0.8,0.4c0.2,0.4,0.3,0.9,0.3,1.5
		c0,0.6-0.1,1.4-0.3,1.9c0.4,0,0.8,0,0.8,0s0.4,0,0.8,0c-0.2-0.5-0.3-1.4-0.3-1.9c0-0.6,0.1-1.1,0.3-1.5
		C121.1,296.7,120.8,296.5,120.6,296.3"/>
	<path d="M117,293.9c0.7,0.4,1.3,0.8,1.7,1.6c-0.2,0.1-0.4,0.2-0.6,0.3c-2.1,1-1.7,4.6,0.2,4.7c0.2,0,0.5-0.1,0.8-0.1
		c0.2-0.4,0.4-0.9,0.5-1.4c-0.1,0.3-0.4,0.4-0.6,0.4c-0.4,0-0.8-0.5-0.8-1.1s0.3-1.1,0.8-1.1c0.3,0,0.6,0.2,0.7,0.6
		c0-0.6-0.2-1.1-0.4-1.5c0-0.1,0-0.1,0-0.2c0.1-0.1,0.1-0.1,0.2-0.1c0.6,0.2,1-0.4,1.1-0.5c0,0,0.1-0.1,0.1-0.1s0.1,0,0.1,0.1
		c0,0,0.4,0.7,1.1,0.5c0.1,0,0.1,0,0.2,0.1c0.1,0.1,0.1,0.1,0,0.2c-0.2,0.4-0.4,0.9-0.4,1.5c0.1-0.3,0.4-0.6,0.7-0.6
		c0.4,0,0.8,0.5,0.8,1.1c0,0.6-0.4,1.1-0.8,1.1c-0.2,0-0.5-0.2-0.6-0.4c0.1,0.5,0.2,1,0.5,1.4c0.3,0,0.5,0.1,0.8,0.1
		c1.8-0.1,2.3-3.6,0.2-4.7c-0.2-0.1-0.4-0.2-0.6-0.3c0.4-0.7,1.1-1.2,1.7-1.6c0.8-0.5,1.4-0.9,2-1.8c0-0.1,0-0.2-0.1-0.2
		c-0.1-0.1-0.2,0-0.2,0.1c-0.5,0.8-1.2,1.2-1.9,1.6c-0.7,0.4-1.5,0.8-2,1.7c-0.6-0.2-1-0.4-1.3-0.8c0,0,0,0-0.1,0
		c-0.3,0.4-0.8,0.6-1.3,0.8c-0.5-0.9-1.3-1.3-2-1.7c-0.7-0.4-1.4-0.8-1.9-1.6c-0.1-0.1-0.2-0.1-0.2-0.1c-0.1,0-0.1,0.2-0.1,0.2
		C115.6,293,116.2,293.4,117,293.9"/>
	<path d="M135.6,308.7c0.1-0.3,0.1-1-0.1-1.2c-0.5-0.5-1.1-0.6-1.1-0.6s0.1-0.4-0.2-0.7c-0.4-0.4-2.8-1.8-3.4-1.9
		c-0.7-0.2-2.8-0.9-3.5-1.1c-0.2,0-0.6-0.1-1.1-0.2c-0.2-0.2-0.5-0.5-0.7-0.7c1.5-1.2,2.5-2.7,2.5-3.1c0-0.5-0.2-0.7-0.2-0.7
		s0.4-0.2,0.3-0.5c-0.3-0.7-0.3-2.3-0.3-2.3s0.3-0.3,0.8-0.2c-0.1-0.3-0.4-0.5-0.6-0.5c-0.2,0-0.4,0.1-0.5,0.3
		c-0.2,0.1-0.1,0.5-0.1,0.7c0,0.2,0,1.3-0.1,1.7c-0.2,0.6-0.2,0.9,0,1.2c-0.1,0.2-2,1.9-2.8,2.6c-0.7-0.4-1.6-0.6-3-0.7v0h-0.8
		c-0.1,0-0.1,0-0.2,0h-0.6v0c-1.4,0-2.2,0.2-3,0.7c-0.9-0.7-2.8-2.4-2.8-2.6c0.2-0.2,0.2-0.5,0-1.2c-0.1-0.4-0.1-1.4-0.1-1.7
		c0-0.2,0.1-0.6-0.1-0.7c-0.2-0.1-0.3-0.2-0.5-0.3c-0.2,0-0.5,0.1-0.6,0.5c0.5,0,0.8,0.2,0.8,0.2s-0.1,1.5-0.4,2.3
		c-0.1,0.3,0.3,0.5,0.3,0.5s-0.3,0.1-0.2,0.7c0,0.5,1,1.9,2.5,3.1c-0.2,0.2-0.4,0.4-0.7,0.6c-0.5,0.1-0.9,0.2-1.1,0.2
		c-0.7,0.1-2.8,0.8-3.5,1.1c-0.6,0.2-3,1.5-3.4,1.9c-0.4,0.4-0.2,0.7-0.2,0.7s-0.7,0.1-1.1,0.6c-0.3,0.3-0.2,1-0.1,1.2
		c0.1,0.2,0.4,0.2,0.4,0.2s-0.2-1.2,0.8-1.3c0.5-0.1,0.9,0,0.9,0s1.4-0.8,1.8-1c0.4-0.2,1.1-1.3,1.1-1.3s0.6,0.3,1.1,0.3
		c0.4,0,1.4-0.7,2-1.2l-0.2,0.2l1.7,0.1c0.1,0,0.2,0,0.3,0c0.2,0,0.4,0,0.5,0c-1.9,2-3.6,3.1-5.3,4.2c-1.7,1.2-3.4,2.2-5.1,4.2
		c-1.6,1.9-2.2,3.2-1.8,4c0.3,0.6,1,0.8,2.1,0.8c3.3-0.1,5.3-0.7,6-1.9c-0.1,0.4-0.1,0.7-0.1,1.2c-0.9,1.5-1.3,2.6-1.6,3.6
		c-0.2,0.6,0,0.8,0.4,1.1c-0.3,0.7-0.3,1.4-0.7,1.6c-1.1,0.6-0.6,1-0.6,1l1-0.2l0.8-2.2c0,0,0.2,0,0.3-0.1c0.6-0.4,0.1-1.9,1.2-4.1
		c0.4,0.1,0.5-0.2,0.6-1.2c0-0.4,0.1-0.9,0.2-1.3c0.7-0.2,1.3-0.5,1.7-0.8c0.1,3.5,1.2,6.1,2.1,7.7c1.1,1.8,2.4,3.1,3.2,3.1
		c0.8,0,2.1-1.3,3.2-3.1c0.9-1.6,2-4.2,2.1-7.7c0.5,0.3,1,0.6,1.7,0.8c0.1,0.5,0.1,0.9,0.2,1.3c0.1,1,0.2,1.3,0.6,1.2
		c1.1,2.2,0.6,3.7,1.2,4.1c0.1,0.1,0.3,0.1,0.3,0.1l0.8,2.2l1,0.2c0,0,0.5-0.4-0.6-1c-0.4-0.2-0.4-1-0.7-1.6
		c0.4-0.3,0.6-0.5,0.4-1.1c-0.3-1-0.7-2.1-1.6-3.6c0-0.4-0.1-0.8-0.1-1.2c0.7,1.1,2.7,1.8,6,1.9c1.1,0,1.9-0.2,2.1-0.8
		c0.4-0.8-0.2-2.1-1.8-4c-1.7-2-3.3-3.1-5.1-4.2c-1.7-1.1-3.4-2.2-5.3-4.2c0.3,0,0.6,0,0.9,0l1.7-0.1l-0.2-0.2
		c0.6,0.5,1.7,1.2,2,1.2c0.5,0,1.1-0.3,1.1-0.3s0.7,1.2,1.1,1.3c0.4,0.2,1.8,1,1.8,1s0.4,0,0.9,0c0.9,0.1,0.8,1.3,0.8,1.3
		S135.5,308.9,135.6,308.7 M120.6,311.6c1.1,0,2.1,0,3,0.1l0.4,0c0,0.1,0.1,0.2,0.1,0.4c0.1,0.3,0.3,0.7,0.5,1
		c-2.7,0.4-5.3,0.4-7.9,0c0.2-0.3,0.4-0.7,0.5-1c0.1-0.1,0.1-0.2,0.1-0.4l0.4-0.1C118.5,311.6,119.5,311.6,120.6,311.6 M116.1,315.8
		c0-0.5-0.1-1-0.1-1.5c2.7,0.5,6.4,0.5,9.2,0c0,0.5,0,1-0.1,1.5C122.2,316.3,119,316.3,116.1,315.8 M124.9,317.2
		c-0.1,0.5-0.2,1-0.3,1.5c-2.6,0.3-5.4,0.3-8,0c-0.1-0.5-0.2-0.9-0.3-1.5C118.9,317.6,122.2,317.6,124.9,317.2 M107.5,317.2
		c0.3-1.1,1.2-3.3,3.3-5.7c0,0,0-0.1,0-0.1c0,0-0.1,0-0.1,0c-2.5,2.2-3.6,4.7-3.8,5.8c-0.3,0-0.6,0-0.8,0c-0.6,0-1.4,0-1.6-0.5
		c0-0.1-0.1-0.2-0.1-0.3c0-0.5,0.3-1.4,1.8-3.1c1.7-1.9,3.4-2.8,5.1-4c2-1.3,3.8-2.2,6-4.9c0,0.4-0.1,0.9-0.1,1.1c0,0.5,0,0.9,0,1.4
		c0,0.5,0.1,0.9,0.1,1.4c0,1.1-0.1,2.2-0.7,3.4c-0.7,1.6-1.5,2.9-4.3,3.3c0.5-1.9,1.6-4.3,2.6-5.6c0,0,0-0.1,0-0.1c0,0-0.1,0-0.1,0
		c-1.4,1.4-2.6,3.8-3.1,5.8c0,0,0,0,0,0.1C111.5,316.3,110,316.9,107.5,317.2 M120.6,324.7c-0.2,0-1.1-0.5-2.1-1.9
		c1.3,0.1,2.9,0.1,4.1,0C121.7,324.2,120.8,324.7,120.6,324.7 M123.5,321.5c-1.9,0.1-3.9,0.1-5.8,0c-0.2-0.4-0.5-0.9-0.7-1.4
		c2.1,0.2,4.9,0.2,7.1,0C123.9,320.5,123.7,321,123.5,321.5 M129.9,309.4c1.7,1.1,3.4,2,5.1,4c1.5,1.7,1.8,2.6,1.8,3.1
		c0,0.1,0,0.2-0.1,0.3c-0.2,0.5-1,0.5-1.6,0.5c-0.3,0-0.6,0-0.8,0c-0.3-1.2-1.3-3.6-3.8-5.8c0,0-0.1,0-0.1,0c0,0,0,0.1,0,0.1
		c2.1,2.3,3.1,4.5,3.3,5.7c-2.5-0.2-4-0.9-4.3-1.8c0,0,0,0,0-0.1c-0.5-2-1.8-4.5-3.1-5.8c0,0-0.1,0-0.1,0c0,0,0,0.1,0,0.1
		c1.1,1.2,2.1,3.6,2.7,5.5c-2.8-0.4-3.6-1.7-4.3-3.3c-0.6-1.3-0.7-2.4-0.7-3.4c0-0.5,0-0.9,0.1-1.4c0-0.5,0-0.9,0-1.4
		c0-0.2,0-0.7-0.1-1.1C126.2,307.2,128,308.1,129.9,309.4"/>
	<path d="M120.6,288.5c-12.1,0-22,9.9-22,22c0,12.1,9.9,22,22,22c12.1,0,22-9.9,22-22C142.6,298.4,132.7,288.5,120.6,288.5
		 M120.6,331.8c-11.7,0-21.3-9.5-21.3-21.3c0-11.7,9.5-21.3,21.3-21.3c11.7,0,21.3,9.5,21.3,21.3
		C141.9,322.2,132.3,331.8,120.6,331.8"/>
	<path d="M120.2,361.4c0.1,0.1,0.2,0.2,0.4,0.2c0.1,0,0.3-0.1,0.4-0.2l2.4-2.4c0.2-0.2,0.2-0.6,0-0.8l-2.4-2.4
		c-0.1-0.1-0.2-0.1-0.4-0.1c-0.1,0-0.3,0.1-0.4,0.1l-2.4,2.4c-0.2,0.2-0.2,0.6,0,0.8L120.2,361.4z M120.6,356.3l2.3,2.3l-2.3,2.3
		l-2.3-2.3L120.6,356.3z"/>
	<path d="M105.2,291c-0.7,0.6-1.4,1.2-2.1,1.9c-1.6-1.3-2.6-2-2.6-2c-0.1-0.1-0.2-0.1-0.4-0.1c-0.2,0-0.4,0.1-0.5,0.2l-1.3,1.5
		c-0.2,0.3-0.2,0.7,0,0.9c0,0,0.9,0.9,2.4,2.3c-0.6,0.8-1.1,1.6-1.6,2.4c-1.9-0.8-3.1-1.3-3.1-1.3c-0.1,0-0.2-0.1-0.3-0.1
		c-0.2,0-0.5,0.1-0.6,0.4l-0.9,1.8c-0.2,0.3,0,0.7,0.3,0.8c0,0,1.1,0.6,2.9,1.6c-0.4,0.9-0.7,1.8-0.9,2.7c-2-0.3-3.3-0.4-3.3-0.5
		c0,0-0.1,0-0.1,0c-0.3,0-0.6,0.2-0.6,0.5l-0.4,2c-0.1,0.4,0.1,0.7,0.5,0.8c0,0,1.2,0.3,3.2,0.8c-0.1,0.9-0.2,1.8-0.2,2.8
		c-2,0.2-3.3,0.4-3.3,0.4c-0.3,0-0.6,0.3-0.6,0.7l0.1,2c0,0.3,0.3,0.6,0.6,0.6c0,0,0,0,0,0s1.3,0,3.3,0c0.1,1,0.3,1.9,0.6,2.8
		c-1.9,0.8-3.1,1.3-3.1,1.3c-0.3,0.1-0.5,0.5-0.4,0.8l0.7,1.9c0.1,0.3,0.3,0.4,0.6,0.4c0.1,0,0.1,0,0.2,0c0,0,1.2-0.3,3.2-0.9
		c0.4,0.9,0.8,1.7,1.3,2.5c-1.6,1.2-2.6,2-2.6,2c-0.1,0.1-0.2,0.2-0.2,0.4c0,0.2,0,0.4,0.1,0.5l1.1,1.6c0.1,0.2,0.3,0.3,0.5,0.3
		c0.1,0,0.2,0,0.3-0.1c0,0,1.1-0.6,2.9-1.7c0.6,0.7,1.2,1.4,1.9,2.1c-1.3,1.6-2,2.6-2,2.6c-0.2,0.3-0.2,0.7,0.1,0.9l1.5,1.3
		c0.1,0.1,0.3,0.2,0.4,0.2c0.2,0,0.3-0.1,0.5-0.2c0,0,0.9-0.9,2.3-2.4c0.8,0.6,1.6,1.1,2.4,1.6c-0.8,1.9-1.3,3.1-1.3,3.1
		c-0.1,0.1-0.1,0.3,0,0.5c0.1,0.2,0.2,0.3,0.3,0.4l1.8,0.9c0.1,0,0.2,0.1,0.3,0.1c0.2,0,0.5-0.1,0.6-0.3c0,0,0.6-1.1,1.6-2.9
		c0.9,0.3,1.8,0.6,2.7,0.9c-0.3,2-0.5,3.3-0.5,3.3c0,0.2,0,0.3,0.1,0.5c0.1,0.1,0.2,0.2,0.4,0.3l2,0.4c0,0,0.1,0,0.1,0
		c0.3,0,0.6-0.2,0.6-0.5c0,0,0.3-1.2,0.8-3.2c0.3,0,0.6,0.1,0.9,0.1v4.7c0,0.9-3.2,1.3-5.5,1.5l-0.8,0.1c-1.3,0.2-2.2,0.6-2.8,1.2
		c-0.5,0.6-0.4,1.2-0.4,1.3h0.1H132h0.1c0-0.1,0.1-0.7-0.4-1.3c-0.5-0.7-1.4-1.1-2.8-1.2l-0.8-0.1c-2.3-0.3-5.5-0.6-5.5-1.5v-0.3
		l-0.9,0.1c0,0-0.1,0-0.1,0c-0.6,0-1.1-0.4-1.1-1c0-0.1-0.2-1.4-0.4-3.3c0.2,0,0.3,0,0.5,0c0.2,2,0.4,3.3,0.4,3.3
		c0,0.3,0.3,0.6,0.6,0.6c0,0,0,0,0.1,0l2-0.1c0.2,0,0.3-0.1,0.5-0.2c0.1-0.1,0.2-0.3,0.1-0.4c0,0,0-1.3,0-3.3c1-0.1,1.9-0.3,2.8-0.6
		c0.8,1.9,1.2,3.1,1.2,3.1c0.1,0.2,0.3,0.4,0.6,0.4c0.1,0,0.1,0,0.2,0l1.9-0.6c0.2-0.1,0.3-0.2,0.4-0.3c0.1-0.1,0.1-0.3,0-0.5
		c0,0-0.3-1.2-0.9-3.2c0.9-0.4,1.7-0.8,2.5-1.3c1.2,1.6,2,2.6,2,2.6c0.1,0.2,0.3,0.3,0.5,0.3c0.1,0,0.3,0,0.4-0.1l1.7-1.1
		c0.1-0.1,0.2-0.2,0.3-0.4c0-0.2,0-0.3-0.1-0.5c0,0-0.6-1.1-1.7-2.8c0.7-0.6,1.4-1.2,2.1-1.9c1.6,1.3,2.6,2,2.6,2
		c0.1,0.1,0.2,0.1,0.4,0.1c0.2,0,0.4-0.1,0.5-0.2l1.3-1.5c0.1-0.1,0.2-0.3,0.2-0.5c0-0.2-0.1-0.3-0.2-0.4c0,0-0.9-0.9-2.4-2.3
		c0.6-0.8,1.1-1.6,1.6-2.4c1.9,0.8,3.1,1.3,3.1,1.3c0.1,0,0.2,0.1,0.2,0.1c0.2,0,0.5-0.1,0.6-0.4l0.9-1.8c0.1-0.3,0-0.7-0.3-0.8
		c0,0-1.1-0.6-2.9-1.6c0.4-0.9,0.6-1.8,0.9-2.7c2,0.3,3.3,0.4,3.3,0.4c0,0,0.1,0,0.1,0c0.3,0,0.6-0.2,0.6-0.5l0.4-2
		c0-0.2,0-0.4-0.1-0.5c-0.1-0.1-0.2-0.2-0.4-0.2c0,0-1.2-0.3-3.2-0.8c0.1-0.9,0.2-1.9,0.2-2.8c2-0.3,3.3-0.4,3.3-0.4
		c0.3,0,0.6-0.3,0.6-0.7l-0.1-2c0-0.3-0.3-0.6-0.6-0.6c0,0,0,0,0,0c0,0-1.3,0-3.3,0.1c-0.1-1-0.3-1.9-0.6-2.9
		c1.9-0.8,3.1-1.3,3.1-1.3c0.3-0.1,0.5-0.5,0.4-0.8l-0.7-1.9c-0.1-0.3-0.3-0.4-0.6-0.4c-0.1,0-0.1,0-0.2,0c0,0-1.2,0.3-3.2,0.9
		c-0.4-0.9-0.8-1.7-1.3-2.5c1.6-1.2,2.6-2,2.6-2c0.1-0.1,0.2-0.2,0.2-0.4c0-0.2,0-0.4-0.1-0.5l-1.1-1.6c-0.1-0.2-0.3-0.3-0.5-0.3
		c-0.1,0-0.2,0-0.3,0.1c0,0-1.1,0.6-2.8,1.7c-0.6-0.7-1.2-1.4-1.9-2.1c1.3-1.6,2-2.6,2-2.6c0.1-0.1,0.2-0.3,0.1-0.4
		c0-0.2-0.1-0.3-0.2-0.5l-1.5-1.3c-0.1-0.1-0.3-0.2-0.4-0.2c-0.2,0-0.3,0.1-0.5,0.2c0,0-0.9,0.9-2.3,2.4c-0.8-0.6-1.6-1.1-2.4-1.6
		c0.8-1.9,1.3-3.1,1.3-3.1c0.1-0.1,0.1-0.3,0-0.5c-0.1-0.2-0.2-0.3-0.3-0.4l-1.8-0.9c-0.1,0-0.2-0.1-0.3-0.1c-0.2,0-0.5,0.1-0.6,0.3
		c0,0-0.6,1.1-1.6,2.9c-0.9-0.3-1.8-0.6-2.7-0.9c0.3-2,0.4-3.3,0.5-3.3c0-0.2,0-0.3-0.1-0.5c-0.1-0.1-0.2-0.2-0.4-0.3l-2-0.4
		c0,0-0.1,0-0.1,0c-0.3,0-0.6,0.2-0.6,0.5c0,0-0.3,1.2-0.8,3.2c-0.3,0-0.6-0.1-0.9-0.1V281c0-0.9,3.2-1.3,5.5-1.5l0.8-0.1
		c1.3-0.1,2.2-0.6,2.8-1.2c0.5-0.6,0.4-1.2,0.4-1.3H132h-22.8h-0.1c0,0.1-0.1,0.7,0.4,1.3c0.5,0.7,1.4,1.1,2.8,1.2l0.8,0.1
		c2.3,0.2,5.5,0.6,5.5,1.5v0.3l1-0.1c0,0,0.1,0,0.1,0c0.6,0,1.1,0.4,1.1,1c0,0.1,0.2,1.4,0.4,3.4c-0.2,0-0.3,0-0.5,0
		c-0.2-2-0.4-3.3-0.4-3.3c0-0.3-0.3-0.6-0.6-0.6c0,0,0,0,0,0l-2,0.1c-0.2,0-0.4,0.1-0.5,0.2c-0.1,0.1-0.1,0.3-0.1,0.4
		c0,0,0,1.3,0.1,3.3c-1,0.1-1.9,0.3-2.8,0.6c-0.8-1.9-1.3-3.1-1.3-3.1c-0.1-0.2-0.3-0.4-0.6-0.4c-0.1,0-0.1,0-0.2,0l-1.9,0.7
		c-0.3,0.1-0.5,0.5-0.4,0.8c0,0,0.3,1.2,0.9,3.2c-0.9,0.4-1.7,0.8-2.5,1.3c-1.2-1.6-2-2.6-2-2.6c-0.1-0.2-0.3-0.3-0.5-0.3
		c-0.1,0-0.3,0-0.4,0.1l-1.6,1.1c-0.1,0.1-0.2,0.2-0.3,0.4c0,0.2,0,0.3,0.1,0.5C103.5,288.1,104.1,289.2,105.2,291 M120.6,333.7
		c-12.8,0-23.2-10.4-23.2-23.2c0-12.8,10.4-23.2,23.2-23.2c12.8,0,23.2,10.4,23.2,23.2C143.8,323.3,133.4,333.7,120.6,333.7"/>
	<path d="M98.2,362.2c-0.1,0-0.3,0.1-0.4,0.1h0v0c-0.2-1.3-0.5-2.4-0.7-3.5v0c0.2-0.1,0.3-0.1,0.5-0.1c0,0,0-0.3-0.1-0.4
		c-0.6,0.2-1.2,0.4-1.8,0.6v0c0,0.1,0,0.2,0.1,0.3l0.5-0.2v0c0.2,1,0.4,2,0.7,3.5c-0.1,0-0.3,0.1-0.4,0.2h0c0,0,0,0.2,0.1,0.3
		c0.7-0.2,1.2-0.4,1.8-0.6C98.3,362.4,98.3,362.3,98.2,362.2L98.2,362.2z"/>
	<path d="M101.6,359.4l0-0.2c-0.1-0.7-0.3-1.1-0.6-1.3c-0.2-0.2-0.5-0.3-0.8-0.3c-0.1,0-0.3,0-0.4,0c-0.5,0.1-0.8,0.3-1,0.6
		c-0.2,0.3-0.3,0.7-0.2,1.3c0,0.2,0.1,0.4,0.1,0.5l0.1,0.6c0,0.2,0.1,0.6,0.3,0.8c0.3,0.5,0.7,0.6,1.1,0.6c0.1,0,0.2,0,0.4,0
		c0.5-0.1,0.9-0.3,1.1-0.6c0.2-0.3,0.3-0.7,0.2-1.3C101.7,359.9,101.6,359.6,101.6,359.4 M100.4,361.4c0,0-0.1,0-0.1,0
		c-0.4,0-0.5-0.3-0.5-0.7c0-0.2-0.1-0.4-0.1-0.6l0-0.1c0-0.3-0.1-0.6-0.1-0.8c0-0.2-0.1-0.7,0.5-0.8c0.1,0,0.1,0,0.2,0
		c0.4,0,0.4,0.3,0.5,0.6v0c0.1,0.5,0.1,1,0.2,1.5C100.8,360.8,100.9,361.3,100.4,361.4"/>
	<path d="M90.7,361c0.1,0.5,0.5,2.2,0.6,2.4h0l0,0h0c0,0-0.1,0-1.2-1.2c-0.2-0.2-0.4-0.4-0.6-0.6c-0.1,0-0.2,0.1-0.3,0.1
		c-0.2,0.1-0.4,0.2-0.5,0.3c0.4,1.5,0.7,2.7,1,4c0.2-0.1,0.5-0.2,0.7-0.4c0-0.2-0.6-2.6-0.7-2.6v0h0c0,0,0,0,0.9,0.9
		c0.5,0.5,0.9,1,1.1,1.1c0.2-0.1,0.4-0.2,0.7-0.3c-0.3-1.4-0.6-2.7-0.9-4.1C91.4,360.7,90.9,360.9,90.7,361"/>
	<path d="M95.3,361.6c-0.2-0.2-0.5-0.3-0.8-0.3l-0.5,0c-0.3,0-0.6-0.1-0.6-0.4c0-0.1,0-0.3,0.3-0.5c0.1,0,0.1-0.1,0.2-0.1
		c0.1,0,0.1,0,0.2,0c0.2,0,0.4,0.1,0.6,0.3l0.6-0.6c-0.3-0.3-0.6-0.4-1-0.4c-0.1,0-0.3,0-0.5,0.1c-0.2,0-0.3,0.1-0.4,0.2
		c0,0,0,0,0,0l0,0c-0.5,0.3-0.8,0.8-0.7,1.3c0.1,0.8,0.7,0.9,1.3,1c0.7,0.1,0.8,0.1,0.9,0.4c0,0.3-0.2,0.5-0.3,0.6l0,0
		c-0.1,0-0.1,0.1-0.2,0.1c-0.1,0-0.2,0-0.2,0c-0.3,0-0.5-0.1-0.6-0.4l-0.6,0.6c0.3,0.4,0.6,0.5,1,0.5c0.2,0,0.4,0,0.7-0.1
		c0.1,0,0.3-0.1,0.4-0.2l0,0c0.1-0.1,0.2-0.2,0.3-0.2c0.5-0.5,0.5-1.1,0.4-1.2C95.6,361.9,95.4,361.7,95.3,361.6"/>
	<path d="M76.2,367.5c-0.2,0.1-0.8,0.2-0.9,0.2c0.2,0.8,0.5,1.6,0.7,2.4l0.1,0.4c0.1,0.3,0.1,0.5,0,0.7c-0.1,0.2-0.3,0.2-0.4,0.2
		c-0.1,0-0.1,0-0.2,0c-0.4,0-0.6-0.5-0.7-0.7c-0.3-0.8-0.6-1.8-0.9-2.7c-0.3,0.1-0.6,0.1-0.9,0.2c0.3,1,0.6,1.9,0.8,2.7
		c0.1,0.4,0.3,0.9,0.8,1.2c0.2,0.1,0.4,0.2,0.7,0.2c0.2,0,0.3,0,0.5-0.1c0.4-0.1,0.7-0.3,0.9-0.6c0.3-0.5,0.1-1.1,0-1.3
		C76.8,369.4,76.5,368.4,76.2,367.5"/>
	<path d="M79.1,367.3L79.1,367.3c0.1,0,0.7-0.3,0.9-0.4l-0.2-0.7c-1,0.4-1.9,0.7-2.7,1c0,0.1,0.1,0.5,0.2,0.7
		c0.2-0.1,0.3-0.1,0.5-0.2c0.2-0.1,0.4-0.1,0.5-0.2h0c0.3,1.1,0.6,2.2,1,3.4c0.2-0.1,0.7-0.3,0.8-0.3
		C79.7,369.4,79.4,368.3,79.1,367.3L79.1,367.3z"/>
	<path d="M84.5,364.8L84.5,364.8c0-0.2-0.2-0.6-0.2-0.7c-1.2,0.6-2,1-2.7,1.3c0,0.2,0.2,0.6,0.2,0.7l0.1-0.1
		c0.3-0.1,0.5-0.2,0.8-0.4l0,0v0c0.3,1,0.6,2,0.9,3.3c0.2-0.1,0.7-0.4,0.8-0.4c-0.3-1.1-0.6-2.2-0.9-3.3v0h0
		C83.6,365.3,84.3,364.9,84.5,364.8"/>
	<path d="M88.7,365.7c-0.6,0.3-1.8,0.9-1.8,0.9l0,0l-0.1-0.4c0-0.2-0.1-0.4-0.1-0.6c0.2-0.1,0.9-0.5,1.2-0.6c0-0.1-0.1-0.5-0.2-0.7
		c-0.2,0.1-1.2,0.6-1.2,0.6h0l0-0.1c0-0.1-0.1-0.3-0.1-0.4l-0.1-0.4l0.1-0.1c0.5-0.3,1.1-0.5,1.6-0.8l-0.1-0.3
		c0-0.1-0.1-0.3-0.1-0.4c-0.4,0.2-0.9,0.4-1.3,0.6l0,0c-0.4,0.2-0.8,0.4-1.2,0.6c0.4,1.6,0.7,2.9,1.1,4.1l0.7-0.4
		c0.5-0.3,1.2-0.6,1.8-0.9l0-0.2C88.7,366.1,88.7,365.9,88.7,365.7"/>
	<path d="M150.4,361c-0.6-0.3-1.9-0.8-2-0.8l-0.1,0.3c0.1,0,0.5,0.2,0.5,0.2v0l-1,3.4h0l-0.5-0.2l-0.1,0.3c0.6,0.2,1.3,0.5,2,0.8
		l0.1-0.3c-0.1-0.1-0.5-0.2-0.5-0.2h0v0c0.4-1.4,0.7-2.5,1-3.4v0h0c0.1,0,0.5,0.2,0.5,0.2L150.4,361z"/>
	<path d="M158.5,364.9c-0.4,0.5-1.8,2.5-1.9,2.5l0,0v0c0,0,0.1-2.5,0.1-3.3c-0.1,0-0.7-0.4-0.9-0.5c0,0.3,0,3.4-0.1,4.7
		c0.1,0,0.7,0.4,1,0.5l2.7-3.4C159.1,365.2,158.5,364.9,158.5,364.9"/>
	<path d="M160.6,367.5l0.4-1.1h0l0.5,0.2l0.1-0.3l-1.9-0.8l-0.1,0.3l0.5,0.2l0,0l-1.3,3.4l-0.5-0.2c0,0-0.1,0.2-0.1,0.3
		c0.6,0.3,1.2,0.5,1.8,0.8l0.1-0.3l-0.5-0.2v0C160,369.1,160.3,368.3,160.6,367.5"/>
	<path d="M152.4,361.9c-0.2-0.1-0.5-0.2-0.7-0.2h0c-0.5,0-0.9,0.4-1.1,1l-0.3,1.2c-0.2,0.8-0.1,1.2,0,1.4c0.2,0.3,0.5,0.6,0.9,0.8
		c0.1,0.1,0.4,0.1,0.6,0.1h0c0.1,0,0.2,0,0.3,0c0.4-0.1,0.5-0.4,0.6-0.6l0,0c0.1-0.1,0.1-0.2,0.2-0.4l-0.8-0.4
		c-0.1,0.4-0.3,0.6-0.5,0.6c-0.1,0-0.1,0-0.2,0c-0.5-0.2-0.4-0.7-0.3-0.9l0.4-1.6c0-0.1,0.1-0.3,0.3-0.4c0.1,0,0.1,0,0.2,0h0
		c0.1,0,0.1,0,0.2,0c0.2,0.1,0.5,0.3,0.3,0.8l0.8,0.4c0.1-0.4,0.2-0.9-0.1-1.3C153,362.1,152.6,361.9,152.4,361.9"/>
	<path d="M163.2,367.6L163.2,367.6c0.1,0,0.1,0,0.2,0c0.3,0.1,0.5,0.4,0.5,0.7l0.8-0.2c-0.2-0.6-0.5-0.9-1.1-1.1
		c-0.2,0-0.3-0.1-0.5-0.1h0c-0.6,0-1,0.3-1.2,0.8c-0.3,0.8,0.2,1.2,0.7,1.6c0.6,0.4,0.7,0.6,0.6,0.9c-0.1,0.2-0.3,0.4-0.5,0.4
		c-0.1,0-0.1,0-0.2,0c-0.4-0.1-0.6-0.4-0.6-0.8L161,370c0.1,0.8,0.6,1.1,1.2,1.2c0.1,0,0.3,0.1,0.4,0.1h0.1h0c0.1,0,0.2,0,0.3,0
		c0.7-0.2,0.9-0.7,0.9-0.9c0.1-0.4,0-0.7,0-0.8c-0.1-0.3-0.3-0.5-0.5-0.7l-0.5-0.3c-0.2-0.2-0.5-0.4-0.4-0.7
		C162.7,367.8,162.9,367.6,163.2,367.6"/>
	<path d="M146.5,361.1l-0.4-0.3c-0.2-0.2-0.4-0.4-0.3-0.7c0,0,0.1-0.3,0.5-0.3c0.1,0,0.1,0,0.2,0c0.3,0.1,0.5,0.4,0.5,0.7l0.8-0.2
		c-0.2-0.6-0.5-0.9-1-1.1c-0.1,0-0.3-0.1-0.4-0.1h-0.1c-0.6,0-1,0.3-1.2,0.8c-0.3,0.8,0.2,1.2,0.7,1.6c0.5,0.4,0.7,0.6,0.6,0.9
		c-0.1,0.3-0.4,0.4-0.5,0.4h0c-0.1,0-0.1,0-0.2,0c-0.3-0.1-0.5-0.4-0.6-0.8l-0.8,0.2c0.1,0.7,0.4,1,1.2,1.2c0.1,0,0.3,0.1,0.4,0.1
		h0.1c0.1,0,0.3,0,0.4,0c0.7-0.2,0.9-0.7,0.9-0.9c0.1-0.4,0.1-0.7,0-0.8C146.9,361.6,146.7,361.3,146.5,361.1"/>
	<path d="M172.7,363.4c-1.5-2.3-6.8-4.3-14.4-5.4l-0.2,0l-0.9,3.8l-0.1,0c-0.8-0.4-1.8-0.9-2.8-1.4c-6.8-3.4-12.1-5.2-15.2-5.2
		c-0.9,0-1.6,0.1-2.2,0.4c-0.7,0.4-1,0.9-1.1,1.7c-0.2,1.7-0.5,4.6-0.7,6.4l-0.1,0.5c0,0.2,0,0.4-0.1,0.5c0,0.1,0,0.2,0,0.4
		c-0.1,1.7,1.7,2.5,3.4,3.2c-0.9,0.4-1.9,0.7-3.1,0.9c-1.8-0.8-3.6-1.7-5.3-2.6c0.5-0.4,1-0.7,1.5-1c0.9-0.5,1.7-1,2.1-1.6
		c0.8-1.2,0.8-2.4-0.1-3.2c-0.2-0.1-0.4-0.3-0.6-0.4l0,0c-1-0.5-3.3-1.8-5.6-1.8c2.6-1.7,5.1-3.5,7.5-5.3c1.3,0.6,2.6,0.9,4,0.9
		c5.1,0,9.8-4.2,11.3-8c-0.7,0.6-2.2,0.7-4,0.8h0c-1.3,0.1-2.7,0.2-4,0.5c-0.3,0.1-0.5,0.2-0.8,0.3c0.7-0.7,1.4-1.4,2.1-2.1
		c0.9,0.2,1.8,0.4,2.7,0.4c5.8,0,9.8-5,10.5-8.7c-0.6,0.6-1.9,0.9-3.5,1.2c-1.2,0.2-2.5,0.5-3.7,0.9c-0.3,0.1-0.7,0.3-1,0.5
		c0.7-0.9,1.3-1.8,1.9-2.7c0.5,0.1,1,0.1,1.6,0.1c1.6,0,3.1-0.4,4.5-1c0,0,0,0,0,0c0,0,0,0,0,0l0,0c0,0,0.1,0,0.1,0
		c0.1,0,0.1-0.1,0.2-0.1c0,0,0,0,0,0s0,0,0,0c2.2-1.2,4.1-3.3,5.1-5.8c0.4-0.9,0.6-1.7,0.7-2.5c-0.5,0.7-1.8,1-3.4,1.4
		c-1.2,0.3-2.5,0.7-3.6,1.2c-0.9,0.5-1.7,1.1-2.4,1.9c0.6-1.1,1.1-2.2,1.5-3.3c0.2,0,0.4,0,0.7,0c2.5,0,4.9-1.3,6.4-3.6
		c0.7-1.1,1.2-2.2,1.6-3.2c0.5-1.2,1-2.3,1.9-3.3c-1,0-3.5,0.2-6,1.9c-1,0.7-1.9,1.6-2.7,2.6c0.3-1,0.5-2.1,0.7-3.2
		c2.8-0.2,5.3-2.1,6.4-5c0.5-1.2,0.7-2.3,0.8-3.4l0,0c0.2-1.3,0.4-2.4,1-3.5c-1,0.2-3.3,0.9-5.4,3.1c-1,1.1-1.8,2.4-2.3,3.8
		c0.1-1.3,0.1-2.5,0-3.8c2.3-1,4-2.6,4.8-4.8c1.2-2.9,0.7-5.9-0.1-7.6c-0.1,0.7-0.8,1.3-1.7,2.1c-0.7,0.6-1.5,1.4-2.1,2.2
		c-0.8,1.2-1.1,2.7-1.3,4.4c-0.1-1.4-0.4-2.8-0.6-4.3c2-1.5,3.2-3.5,3.5-5.8c0.4-3-0.8-5.8-2-7.3c0.1,0.6-0.4,1.5-1.1,2.4
		c-0.5,0.8-1.1,1.7-1.4,2.6c-0.3,0.7-0.4,1.5-0.4,2.4c-0.3-1-0.6-1.9-0.9-2.9c1.8-1.6,2.7-3.7,2.8-6c0.1-3.1-1.5-5.7-2.8-7
		c0.2,0.6-0.3,1.5-0.8,2.5c-0.4,0.8-0.9,1.8-1.1,2.7c-0.2,0.8-0.2,1.8,0,2.7c-0.4-0.9-0.8-1.8-1.2-2.8c1.4-1.6,2-3.5,1.9-5.6
		c-0.2-2.9-1.9-5.2-3.3-6.4c0.2,0.6,0,1.5-0.4,2.5v0c-0.2,0.8-0.5,1.6-0.6,2.5c-0.1,0.9,0,1.9,0.3,2.9c-0.2-0.3-0.4-0.7-0.5-1
		c-0.3-3-1.4-5.1-3.5-6.6c-1-0.7-2.1-1.1-3-1.4c-1.1-0.4-1.9-0.7-2.3-1.4c-0.3,2.4,0.8,5.7,3.5,7.1c0.8,0.4,1.6,0.8,2.3,1
		c1.2,0.5,2.1,0.9,2.7,1.5c0.6,1.2,1.2,2.3,1.8,3.5c-0.1-0.1-0.2-0.2-0.3-0.3c-0.1-0.1-0.2-0.2-0.3-0.2c-0.8-0.7-1.9-1.3-2.8-1.8
		l0,0c-1.3-0.7-2.3-1.3-2.6-1.9c-0.4,1.8,0,4.6,1.9,6.9c1.2,1.5,3.3,3.3,6.9,3.4c0.6,1.6,1.2,3.2,1.7,4.8c-0.6-0.8-1.5-1.6-2.3-2.2
		h0c-1.1-0.9-2-1.7-2.1-2.4c-0.8,1.5-1,4.2,0.1,6.7c0.8,1.8,2.4,4.1,6,5.2c0.3,1.7,0.5,3.4,0.6,5.1c0,0,0-0.1,0-0.1
		c-0.5-1-1.3-1.9-2-2.8c-0.9-1.1-1.6-2-1.6-2.7c-1.1,1.5-1.9,4.2-1.2,7c0.4,1.8,1.6,4.3,4.7,6c-0.2,1.6-0.4,3.1-0.7,4.7
		c-0.2-0.8-0.5-1.6-0.8-2.4l0,0c-0.5-1.3-0.9-2.5-0.7-3.1c-1.7,1.2-3.6,3.7-3.8,6.9c-0.1,1.8,0.2,4.4,2.7,6.9c-0.9,2-1.9,3.9-3,5.7
		c0.1-0.3,0.2-0.6,0.2-0.9c0.2-1.2,0.1-2.6,0.1-3.8c-0.1-1.6-0.1-2.9,0.3-3.6c-2,0.8-4.6,3.1-5.8,6.4c-0.7,2-1.2,5,0.5,8.5
		c-1.3,1.6-2.7,3.1-4.2,4.5c0.4-0.6,0.7-1.2,0.9-1.8c0.4-1.3,0.6-2.7,0.8-4c0.2-1.7,0.4-3.2,1.1-3.9c-1.8,0.6-3.6,1.8-5.2,3.3
		c0,0,0,0,0,0l0,0c-0.1,0.1-0.1,0.1-0.2,0.2c0,0,0,0,0,0l0,0c-0.1,0.1-0.1,0.1-0.2,0.2c0,0,0,0,0,0c0,0,0,0,0,0
		c-0.8,0.9-1.5,2-2,3.1c-1.2,2.5-1.3,5.1-0.5,7.6c-3.2,2.6-6.8,5.1-10.5,7.5v-2.4c0,0,0,0,0,0l0,0c0.3-1,1.6-1.5,2.9-2
		c0.9-0.3,1.8-0.7,2.6-1.3c0.8-0.7,1.3-1.4,1.4-2.2c0.1-1-0.5-1.7-0.5-1.7c-0.1-0.1-0.2-0.2-0.3-0.2v0c-1-0.9-5.1-2.2-6.6-2.2
		c-0.1,0-0.1,0-0.1,0c-1,0.1-1.8,0.3-2.4,0.5c-0.7,0.2-1.2,0.4-1.8,0.4c-0.6,0-1.3-0.2-2-0.4c-0.7-0.2-1.5-0.5-2.4-0.5
		c0,0-0.1,0-0.1,0c-1.5,0-5.5,1.3-6.6,2.2v0c-0.1,0.1-0.2,0.2-0.3,0.3c0,0-0.6,0.7-0.5,1.7c0.1,0.8,0.6,1.5,1.4,2.2
		c0.7,0.6,1.6,0.9,2.6,1.3c1.2,0.5,2.4,0.9,2.7,1.8l0,0c0,0.1,0,0.1,0,0.2v2.4c-3.8-2.4-7.3-4.8-10.5-7.4c0.9-2.5,0.7-5.1-0.5-7.6
		c-0.5-1.1-1.2-2.1-2-3.1c0,0,0,0,0,0l0,0c-0.1-0.1-0.1-0.1-0.2-0.2l0,0c0,0,0,0,0,0c-0.1-0.1-0.1-0.1-0.2-0.2l0,0l0,0
		c-1.5-1.6-3.4-2.8-5.2-3.3c0.7,0.7,0.9,2.2,1.1,3.9c0.2,1.3,0.4,2.7,0.8,4c0.2,0.6,0.5,1.3,0.9,1.8c-1.5-1.5-2.9-3-4.2-4.5
		c1.7-3.5,1.2-6.5,0.5-8.5c-1.2-3.3-3.8-5.6-5.8-6.4c0.5,0.6,0.4,2,0.3,3.6c-0.1,1.2-0.1,2.6,0.1,3.8c0,0.3,0.1,0.6,0.2,0.9
		c-1.1-1.8-2.1-3.8-3-5.7c2.4-2.5,2.8-5.1,2.7-6.9c-0.2-3.1-2.1-5.7-3.8-6.9c0.3,0.7-0.2,1.8-0.7,3.1v0c-0.3,0.8-0.6,1.6-0.8,2.4
		c-0.3-1.5-0.6-3.1-0.7-4.7c3.1-1.7,4.3-4.2,4.7-6c0.7-2.9-0.1-5.6-1.2-7c0,0.7-0.7,1.6-1.6,2.7c-0.7,0.8-1.4,1.8-2,2.8
		c0,0,0,0.1,0,0.1c0.1-1.7,0.3-3.4,0.6-5.1c3.6-1.1,5.2-3.4,6-5.2c1.1-2.6,0.8-5.2,0.1-6.7c-0.1,0.7-1,1.5-2.1,2.4h0
		c-0.8,0.7-1.6,1.4-2.3,2.2c0.5-1.6,1-3.2,1.7-4.8c3.6-0.1,5.7-1.9,6.9-3.4c1.8-2.3,2.2-5.2,1.9-6.9c-0.3,0.6-1.4,1.2-2.6,1.9l0,0
		c-0.9,0.5-2,1.1-2.8,1.8c-0.1,0.1-0.2,0.2-0.3,0.2c-0.1,0.1-0.2,0.2-0.3,0.3c0.6-1.2,1.2-2.3,1.8-3.5c0.6-0.6,1.5-1,2.7-1.5
		c0.6-0.3,1.4-0.6,2.3-1c2.8-1.4,3.9-4.7,3.5-7.1c-0.4,0.7-1.3,1-2.3,1.4c-0.9,0.3-2,0.7-3,1.4c-2.1,1.4-3.3,3.6-3.5,6.6
		c-0.2,0.3-0.4,0.7-0.5,1c0.3-1,0.4-1.9,0.3-2.9c-0.1-0.9-0.4-1.8-0.6-2.5l0,0c-0.3-1-0.6-1.9-0.4-2.5c-1.4,1.2-3.1,3.5-3.3,6.4
		c-0.2,2,0.5,4,1.9,5.6c-0.4,0.9-0.8,1.9-1.2,2.8c0.2-0.9,0.2-1.9,0-2.7c-0.2-1-0.7-1.9-1.1-2.7c-0.5-1-0.9-1.9-0.8-2.5
		c-1.4,1.4-2.9,4-2.8,7c0.1,2.3,1,4.3,2.8,6c-0.3,1-0.6,1.9-0.9,2.9c0-0.8-0.1-1.7-0.4-2.4c-0.4-1-0.9-1.9-1.5-2.6
		c-0.6-1-1.2-1.8-1.1-2.4c-1.2,1.5-2.4,4.2-1.9,7.3c0.3,2.3,1.5,4.3,3.5,5.8c-0.3,1.4-0.5,2.9-0.6,4.3c-0.1-1.7-0.5-3.2-1.3-4.4
		c-0.6-0.9-1.4-1.6-2.1-2.2h0c-0.9-0.8-1.6-1.5-1.7-2.1c-0.8,1.8-1.2,4.8-0.1,7.6c0.9,2.2,2.6,3.8,4.8,4.8c0,1.3,0,2.6,0,3.8
		c-0.5-1.4-1.3-2.7-2.3-3.8c-2-2.2-4.4-2.9-5.3-3.1c0.6,1.1,0.8,2.2,1,3.5v0c0.2,1.1,0.4,2.2,0.8,3.4c1.1,2.9,3.6,4.8,6.4,5
		c0.2,1.1,0.4,2.1,0.7,3.2c-0.8-1-1.6-1.9-2.7-2.6c-2.5-1.7-5-1.9-6-1.9c0.9,0.9,1.4,2.1,1.9,3.3c0.4,1,0.9,2.1,1.6,3.2
		c1.5,2.3,3.9,3.6,6.4,3.6c0.2,0,0.4,0,0.7,0c0.5,1.1,1,2.2,1.5,3.3c-0.7-0.8-1.5-1.4-2.4-1.9c-1.1-0.6-2.5-0.9-3.6-1.2
		c-1.5-0.4-2.9-0.8-3.4-1.4c0.1,0.8,0.4,1.7,0.7,2.5c1,2.4,2.9,4.5,5.1,5.8l0,0c0,0,0,0,0,0c0.1,0,0.1,0.1,0.2,0.1c0,0,0.1,0,0.1,0
		l0,0c0,0,0,0,0,0c0,0,0,0,0,0c1.4,0.7,2.9,1,4.5,1c0.5,0,1,0,1.6-0.1c0.6,0.9,1.3,1.8,1.9,2.7c-0.3-0.2-0.6-0.4-1-0.5
		c-1.2-0.5-2.5-0.7-3.7-0.9c-1.6-0.3-2.9-0.5-3.5-1.2c0.7,3.7,4.7,8.7,10.5,8.7c0.9,0,1.8-0.1,2.7-0.4c0.7,0.7,1.4,1.4,2.1,2.1
		c-0.3-0.1-0.5-0.2-0.8-0.3c-1.3-0.4-2.7-0.4-4-0.5h0c-1.7-0.1-3.3-0.2-4-0.8c1.5,3.9,6.3,8,11.3,8c1.4,0,2.7-0.3,4-0.9
		c2.4,1.8,4.9,3.6,7.5,5.3c-2.1,0-4.2,1.1-5.4,1.8l0,0l0,0c-0.2,0.1-0.4,0.2-0.6,0.4c-0.9,0.8-0.9,2-0.1,3.2
		c0.4,0.6,1.3,1.1,2.1,1.7c0.5,0.3,1,0.6,1.5,0.9c-1.8,0.9-3.6,1.8-5.4,2.6c-1.1-0.3-2.2-0.6-3.1-0.9c1.8-0.7,3.8-1.6,3.3-3.7
		c0-0.1,0-0.2,0-0.4c-0.2-1.8-0.6-5.1-0.8-6.9c-0.1-0.7-0.5-1.3-1.1-1.7c-0.5-0.3-1.3-0.4-2.2-0.4c-3.2,0-8.4,1.8-15.2,5.2
		c-1,0.5-1.9,1-2.8,1.4l-0.1,0l-0.9-3.8l-0.3,0c-7.5,1.1-12.9,3.1-14.3,5.4c-0.4,0.6-0.5,1.3-0.3,2c0,0,0,0,0,0.1l2.2,7.2
		c0.2,0.7,0.7,1.2,1.4,1.5c0.5,0.2,1.2,0.3,1.9,0.3c3.1,0,8.2-1.8,14.7-5.2c3.8-2,7.1-3.5,9.8-4.4c0.1,2.1,0.2,4.4,0.2,6.4v0h0
		c0,0.1,0,0.1,0,0.2c0,0.4,0.1,0.7,0.2,1.1c-1.2,0.5-2.4,1-3.6,1.5c0.9,0.2,1.8,0.6,2.7,0.7c0.6-0.3,1.2-0.5,1.7-0.8
		c0.5,0.6,1.2,1.1,2.1,1.7c1.7,1,4.1,1.9,7.2,2.5c0.3,0.8,0.8,1.6,1.4,2.6l0.4,0.7l0.2-0.8c0.2-0.8,0.5-1.5,0.9-2
		c2.9,0.5,6.1,0.7,9,0.7h0h0c2.9,0,6.2-0.3,9.1-0.7c0.4,0.5,0.8,1.2,1,2l0.2,0.8l0,0l0.4-0.7c0.6-1,1.1-1.9,1.4-2.7
		c3-0.7,5.4-1.5,7.1-2.5c0.9-0.5,1.5-1.1,2-1.6c0.6,0.3,1.2,0.5,1.7,0.8c0.9-0.1,1.8-0.6,2.7-0.7c-1.2-0.5-2.4-1-3.6-1.5
		c0.1-0.4,0.2-0.7,0.2-1.1c0-0.1,0-0.2,0-0.3c0-2.2,0-4.4,0.1-6.3c2.7,0.9,6,2.5,9.9,4.4c6.6,3.4,11.7,5.2,14.7,5.2
		c0.8,0,1.4-0.1,1.9-0.3c0.7-0.3,1.2-0.8,1.4-1.5l2.2-7.2v0c0,0,0,0,0-0.1C173.3,364.7,173.1,364.1,172.7,363.4 M158.3,307.7
		c0.1-1.3,0.4-2.5,0.9-3.4c0.5-1.1,1.4-1.9,2.2-2.6v0c0.5-0.4,0.9-0.8,1.1-1.2l0-0.1l0,0.1c0.1,0.5,0.5,2.4-0.1,4.6
		c-0.3,1.1-0.7,2-1.3,2.8c-0.7,0.9-1.6,1.8-2.7,2.4c1-1.4,2.1-4.2,2.4-5.2c-0.6,0.9-1.8,3.4-2.6,4.5
		C158.2,309.1,158.2,308.4,158.3,307.7 M153.4,288c0.1-1.2,0.6-2.2,1.1-3.1l0,0c0.3-0.6,0.5-1.1,0.6-1.4l0-0.1l0,0.1
		c0.3,0.4,1.3,2,1.6,4.2c0.1,1.1,0.1,2.1-0.2,3.1c-0.3,1.1-0.9,2.2-1.7,3.2c0.5-1.6,0.5-5,0.4-6.1c-0.1,1-0.3,3.8-0.8,5.3
		c-0.2-0.5-0.4-1-0.6-1.7C153.5,290.2,153.3,289.1,153.4,288 M146.5,287.6c-1-1.6-1.5-3.4-1.5-4.4v-0.1l0,0c0.5,0.4,1.2,0.7,1.9,1.1
		c1,0.5,2.1,1.1,2.9,1.9c0.7,0.8,1.3,1.7,1.8,2.7c0.4,0.8,0.6,1.5,0.8,2c-1.4-1-4.1-3.4-4.5-3.9c0.6,1.1,2.8,3.1,3.8,4.1
		c-1.1-0.2-2.1-0.6-3-1.2C147.8,289.3,147.1,288.5,146.5,287.6 M153,339.3c1-0.2,1.9-0.3,2.5-0.6l0.1,0l0,0.1
		c-0.3,0.7-1.2,2.4-2.8,3.9c-0.9,0.8-1.8,1.4-2.8,1.9c-1.2,0.5-2.5,0.8-3.9,0.8c-0.3,0-0.6,0-0.9,0c2.5-1,5.6-3.1,6-3.5
		c-0.8,0.4-4.7,2.5-6.7,3.2c0.3-0.5,0.8-1.2,1.6-2c0.9-1,1.9-1.8,3-2.4C150.2,339.7,151.7,339.5,153,339.3 M155.5,331.4
		c1-0.7,2.3-1,3.6-1.4l0,0c1-0.2,1.9-0.5,2.6-0.9l0.1,0l0,0.1c-0.5,1.2-1.5,2.9-2.9,4.4c-1.9,1.9-4.2,2.9-6.8,2.9
		c-0.1,0-0.2,0-0.3,0c2.2-1,5.4-3.2,6.1-3.9c-1.7,0.9-4.6,2.6-6.4,3.4c0.3-0.5,0.7-1.1,1.3-1.9C153.5,333,154.5,332.1,155.5,331.4
		 M157.4,323.6c0.8-0.9,1.6-1.7,2.6-2.3c1.1-0.7,2.3-1.2,3.6-1.5l0.1,0l0,0.1c-0.1,0.3-0.3,0.7-0.5,1.2c-0.5,1.2-1.2,3-2.5,4.5
		c-0.7,0.8-1.5,1.5-2.3,1.9c-0.9,0.5-2,0.8-3.1,0.8c1.7-1.2,4.2-3.7,5.4-5.5c-1.1,1.1-4.2,4-5.5,4.9c0.3-0.7,0.5-1.4,0.7-2.2
		C156.4,325,156.8,324.2,157.4,323.6 M158.2,316.2L158.2,316.2L158.2,316.2C158.2,316.1,158.2,316.2,158.2,316.2
		c0.3-0.8,0.7-1.6,1.2-2.4v0l0,0h0.1c0.5-0.7,1-1.4,1.6-2c0.9-0.9,2-1.6,3.2-2.1l0.1,0l0,0.1c-0.1,0.3-0.2,0.7-0.3,1.3v0
		c-0.2,1.3-0.5,3.2-1.4,4.9c-0.5,0.9-1.1,1.7-1.8,2.4c-0.8,0.7-1.9,1.2-3.1,1.5c1.3-1.3,3-4,3.5-5.1c-0.8,1-2.3,3.1-3.5,4.1
		c0-0.5,0.1-0.9,0.2-1.4C158,316.9,158.1,316.5,158.2,316.2 M156.5,296.3c0.2-1.1,0.9-2.2,1.4-3c0.4-0.5,0.7-1,0.8-1.4l0-0.1l0,0.1
		c0.2,0.5,1.1,2.2,1.1,4.4c0,1.1-0.2,2.1-0.6,3c-0.4,1-1,2-1.9,2.9c0.5-1.8,1-5.2,1-5.8c-0.2,1.1-0.9,3.8-1.4,5.3
		c-0.1-0.5-0.3-1.2-0.4-1.9C156.3,298.5,156.3,297.4,156.5,296.3 M150.3,277.9L150.3,277.9c0.2-0.5,0.3-1,0.3-1.4v-0.1l0,0.1
		c0.3,0.4,1.4,1.8,1.9,3.8c0.2,1,0.3,1.9,0.2,2.8c-0.1,1.1-0.5,2.1-1.2,3.1c0.2-1.9-0.3-5.7-0.3-5.7s-0.1,3.5-0.2,4.8
		c-0.2-0.4-0.4-0.9-0.5-1.3c-0.4-1.1-0.6-2.1-0.7-3.1C149.8,279.8,150.1,278.7,150.3,277.9 M146.9,280.5c-0.8-0.3-1.9-0.7-3.1-1.4
		c-1-0.6-1.8-1.3-2.3-2.3c-0.4-0.7-0.6-1.6-0.7-2.6l0-0.1l0.1,0c0.1,0.1,0.4,0.2,0.8,0.3l0,0c0.7,0.2,1.8,0.6,3.2,1.4
		c0.5,0.3,1,0.6,1.4,1.1c0.4,0.4,0.7,0.9,1.1,1.4c0.5,0.8,0.8,1.8,0.9,2.5c-1-1.5-3.8-3.4-3.8-3.4s2.1,1.9,3.1,3.3
		C147.3,280.7,147.1,280.6,146.9,280.5L146.9,280.5z M152.7,300.9c-0.7-0.8-1.3-1.7-1.6-2.7c-0.8-2.2-0.5-4.1-0.4-4.5l0-0.1l0,0
		c0.3,0.5,0.9,1,1.5,1.5h0c0.9,0.7,1.8,1.5,2.4,2.5c0.5,0.9,0.9,1.9,1.1,3.1c0.2,0.7,0.2,1.4,0.2,1.8c-1-1.1-2.9-3.7-3.3-4.5
		c0.5,1.5,2,3.8,3,4.9C154.4,302.5,153.5,301.8,152.7,300.9 M154,312.9c-0.6-0.9-1-2-1.1-3.1c-0.1-0.9-0.1-1.8,0-2.8
		c0.1-0.7,0.3-1.4,0.5-1.9l0-0.1l0,0.1c0.2,0.5,0.7,1.1,1.3,1.7l0,0c0.7,0.9,1.6,1.8,1.9,2.9c0.3,0.9,0.5,1.8,0.5,2.8
		c0,0.9,0,1.7-0.1,2.6c-0.8-1.2-2.1-4-2.5-5.2c0.2,1.3,1.2,3.8,1.9,5.3C155.4,314.7,154.6,313.9,154,312.9 M151.8,321.7
		c0.2-0.9,0.5-1.8,1-2.7c0.3-0.6,0.8-1.3,1.2-1.7l0,0v0.1c0.1,0.6,0.4,1.3,0.7,2.1c0.4,1.1,0.9,2.2,0.9,3.4c0,0.2,0,0.5,0,0.7
		c-0.4,1.6-1,3.2-1.6,4.7c-0.4-2-0.6-6.2-0.5-7.1c-0.4,1.9-0.3,5.3,0,7.1c-0.8-1-1.3-2.1-1.6-3.2C151.6,324,151.6,322.9,151.8,321.7
		 M145.5,336.3c0.1-1.3,0.4-2.5,1-3.7c1-2,2.5-3.6,3.5-4.3l0.1,0l0,0.1c-0.1,0.5-0.1,1.3,0,2.2c0.1,1.4,0.1,3-0.3,4.4
		c-0.4,1.2-0.9,2.4-1.7,3.6c-0.5,0.8-1,1.4-1.4,1.8c0-1.9,0.9-5.4,1.2-6.6c-0.5,1-1.5,4.6-1.8,7
		C145.7,339.2,145.4,337.7,145.5,336.3 M91.4,286.1c0.8-0.8,1.9-1.4,2.9-1.9h0c0.7-0.4,1.4-0.7,1.9-1.1l0,0v0.1
		c-0.1,1.1-0.5,2.8-1.5,4.4c-0.6,0.9-1.4,1.7-2.2,2.3c-0.9,0.6-1.9,1-3,1.2c1.1-1,3.2-3,3.8-4.1c-0.4,0.4-3.1,2.9-4.4,3.9
		c0.1-0.5,0.4-1.2,0.8-2C90.1,287.8,90.7,286.9,91.4,286.1 M84.7,290.7c-0.2-1-0.3-2-0.2-3.1c0.3-2.2,1.3-3.8,1.6-4.2l0-0.1l0,0.1
		c0.1,0.4,0.3,0.9,0.6,1.4v0c0.5,0.9,1,1.9,1.1,3.1c0,1-0.1,2.2-0.5,3.4c-0.2,0.7-0.4,1.2-0.6,1.7c-0.5-1.6-0.7-4.3-0.8-5.3
		c-0.2,1.2-0.1,4.5,0.4,6.1C85.5,292.9,85,291.9,84.7,290.7 M80.1,308c-0.6-0.8-1.1-1.8-1.3-2.8c-0.6-2.2-0.2-4.1-0.1-4.6l0-0.1
		l0,0.1c0.2,0.4,0.6,0.7,1.1,1.2l0,0c0.8,0.7,1.7,1.5,2.2,2.6c0.4,1,0.7,2.1,0.9,3.4c0.1,0.7,0.1,1.4,0.1,1.9
		c-0.8-1.1-2.1-3.5-2.6-4.5c0.3,1,1.4,3.8,2.4,5.2C81.7,309.7,80.8,308.9,80.1,308 M91.1,328.2L91.1,328.2L91.1,328.2
		c1.1,0.7,2.6,2.3,3.6,4.3c0.6,1.2,0.9,2.5,1,3.7c0.1,1.4-0.1,2.9-0.7,4.3c-0.2-2.4-1.3-6-1.7-7c0.3,1.2,1.2,4.8,1.2,6.6
		c-0.4-0.4-0.9-1.1-1.4-1.8c-0.8-1.2-1.4-2.4-1.7-3.6c-0.4-1.3-0.3-2.9-0.3-4.4C91.1,329.6,91.2,328.8,91.1,328.2 M85.6,322.8
		c0-1.2,0.5-2.4,0.9-3.4c0.3-0.8,0.6-1.5,0.7-2.1l0-0.1l0,0c0.4,0.5,0.8,1.1,1.2,1.7c0.5,0.9,0.8,1.8,1,2.7c0.2,1.1,0.2,2.3-0.1,3.3
		c-0.3,1.1-0.8,2.2-1.6,3.2c0.3-1.9,0.4-5.3,0-7.1c0.1,0.9,0,5.2-0.5,7.1c-0.6-1.5-1.2-3.1-1.6-4.7
		C85.6,323.3,85.6,323.1,85.6,322.8 M84.6,309.9c0.4-1.1,1.2-2.1,1.9-2.9l0,0c0.5-0.6,1-1.2,1.3-1.7l0-0.1l0,0.1
		c0.2,0.5,0.4,1.2,0.5,1.9c0.1,0.9,0.1,1.9,0,2.8c-0.2,1.1-0.6,2.2-1.2,3.1c-0.6,0.9-1.4,1.8-2.4,2.5c0.7-1.5,1.8-4.1,1.9-5.3
		c-0.4,1.2-1.7,4-2.5,5.2c-0.1-0.9-0.1-1.7-0.1-2.6C84.1,311.7,84.3,310.7,84.6,309.9 M89,295.2L89,295.2c0.6-0.5,1.2-1,1.6-1.5l0,0
		l0,0.1c0.1,0.4,0.4,2.3-0.4,4.5c-0.4,1-0.9,1.9-1.6,2.7c-0.8,0.8-1.8,1.5-3,2.1c1-1.1,2.5-3.4,3-4.9c-0.5,0.8-2.3,3.4-3.3,4.5
		c0-0.5,0.1-1.1,0.2-1.8c0.2-1.1,0.6-2.2,1.1-3.1C87.2,296.7,88.1,295.9,89,295.2 M95,277c0.4-0.5,0.9-0.8,1.4-1.1
		c1.4-0.8,2.5-1.1,3.2-1.4v0c0.4-0.1,0.6-0.2,0.8-0.3l0,0v0.1c-0.1,1-0.3,1.9-0.7,2.6c-0.5,1-1.3,1.7-2.3,2.3
		c-1.2,0.7-2.3,1.1-3.1,1.4l0,0c-0.2,0.1-0.4,0.1-0.6,0.2c1-1.4,3.1-3.3,3.1-3.3s-2.8,1.9-3.8,3.4c0.1-0.7,0.4-1.6,0.9-2.5
		C94.2,277.9,94.6,277.4,95,277 M88.6,280.3c0.5-2,1.6-3.4,1.9-3.8l0-0.1v0.1c0,0.4,0.2,0.8,0.3,1.3v0c0.3,0.8,0.6,1.9,0.5,3
		c-0.1,1-0.3,2.1-0.7,3.1c-0.2,0.5-0.4,0.9-0.5,1.3c-0.1-1.4-0.2-4.8-0.2-4.8s-0.5,3.8-0.3,5.7c-0.6-1-1-2-1.2-3.1
		C88.3,282.2,88.4,281.3,88.6,280.3 M81.9,299.4c-0.4-0.9-0.6-2-0.6-3c0-2.2,0.8-3.9,1.1-4.4l0-0.1l0,0.1c0.1,0.4,0.4,0.8,0.8,1.4
		c0.6,0.8,1.2,1.9,1.4,3c0.2,1,0.2,2.2,0,3.5c-0.1,0.8-0.3,1.4-0.4,1.9c-0.5-1.5-1.2-4.2-1.4-5.3c0,0.7,0.5,4.1,1,5.8
		C83,301.4,82.3,300.4,81.9,299.4 M78.6,315.8c-0.9-1.7-1.2-3.6-1.4-4.9v0c-0.1-0.6-0.2-1-0.2-1.3l0-0.1l0.1,0
		c1.2,0.5,2.3,1.3,3.2,2.1c0.6,0.6,1.2,1.3,1.6,2h0.1l0,0v0h0c0.5,0.8,0.9,1.6,1.2,2.4c0,0,0,0,0,0h0v0c0.1,0.4,0.2,0.7,0.3,1.1
		c0.1,0.5,0.2,1,0.2,1.4c-1.2-1.1-2.6-3.1-3.5-4.1c0.4,1.1,2.1,3.8,3.4,5.1c-1.2-0.3-2.2-0.8-3.1-1.5
		C79.7,317.5,79.1,316.7,78.6,315.8 M82.9,327.6c-0.8-0.5-1.6-1.1-2.3-1.9c-1.3-1.5-2-3.3-2.5-4.5c-0.2-0.5-0.4-1-0.6-1.2l0-0.1
		l0.1,0c1.3,0.3,2.5,0.8,3.6,1.5c1,0.6,1.9,1.4,2.6,2.3c0.6,0.6,1,1.4,1.4,2.1c0.2,0.7,0.5,1.4,0.7,2.2c-1.3-0.9-4.4-3.8-5.5-4.9
		c1.2,1.8,3.7,4.3,5.4,5.5C84.9,328.4,83.8,328.1,82.9,327.6 M82.5,333.6c-1.5-1.5-2.4-3.2-2.9-4.4l0-0.1l0.1,0
		c0.7,0.4,1.6,0.7,2.6,0.9l0,0c1.2,0.3,2.5,0.6,3.6,1.4c1,0.7,1.9,1.6,2.8,2.7c0.6,0.8,1.1,1.4,1.3,1.9c-1.9-0.8-4.8-2.5-6.4-3.4
		c0.8,0.7,3.9,2.9,6.1,3.9c-0.1,0-0.2,0-0.3,0C86.7,336.5,84.4,335.5,82.5,333.6 M91.2,344.4c-1-0.4-1.9-1.1-2.8-1.9
		c-1.6-1.5-2.5-3.2-2.8-3.9l0-0.1l0.1,0c0.6,0.3,1.5,0.5,2.5,0.6c1.3,0.2,2.8,0.5,4,1.1c1,0.6,2,1.4,3,2.4c0.7,0.8,1.3,1.6,1.6,2
		c-2-0.7-5.9-2.7-6.7-3.2c0.4,0.4,3.5,2.5,6,3.5c-0.3,0-0.6,0-0.9,0C93.7,345.2,92.4,344.9,91.2,344.4 M135.6,365L135.6,365
		L135.6,365c0-0.1,0-0.2,0-0.3v0c0.1-0.4,0.3-0.7,0.7-0.8c0.3-0.2,0.8-0.2,1.3-0.2c1.1,0,2.7,0.4,4.7,1c-0.1,1.5-0.1,3.2-0.2,5
		c-0.8-0.9-2.1-1.4-3.3-1.9C136.8,366.9,135.6,366.3,135.6,365 M128.7,368.3c0-0.3,0.1-0.5,0.3-0.7c1.3,0.7,2.6,1.4,4,2.1
		c-1.1,0.2-2.2,0.4-3.5,0.6C128.9,369.5,128.7,368.9,128.7,368.3 M133.1,361.3c0.6,0.5,0.6,1.4,0,2.3c-0.3,0.5-1.1,1-1.9,1.4h0
		c-0.6,0.4-1.3,0.8-1.8,1.2c-1.3-0.7-2.7-1.4-4-2.1c1.7-0.8,3.3-1.6,4.7-2.8c0.5-0.4,1-0.6,1.6-0.6
		C132.3,360.8,132.8,361,133.1,361.3 M124.2,370.7c-1.2,0.1-2.4,0.1-3.6,0.1c-1.1,0-2.3,0-3.4-0.1c1.1-1.1,1.9-2.2,1.9-3.5
		c0-0.7-0.4-1.4-0.9-2c0.9,0.2,1.7,0.3,2.5,0.3h0h0h0c0.9,0,1.7-0.1,2.7-0.4c-0.6,0.7-1,1.4-1,2.1
		C122.3,368.4,123.1,369.6,124.2,370.7 M120.6,364.8c-0.9,0-1.7-0.1-2.7-0.4c0.9-0.5,1.7-1,2.6-1.5h0.1h0.1c0.8,0.5,1.7,1,2.6,1.5
		C122.3,364.7,121.5,364.8,120.6,364.8 M120.6,354.2c-0.2,0-0.5,0-0.7,0c-0.1-1.4-0.5-2.2-1.1-2.8c0.7,0.1,1.3,0.2,1.9,0.2
		c0.6,0,1.2-0.1,1.8-0.2c-0.6,0.6-1,1.3-1.1,2.8C121.2,354.3,120.9,354.2,120.6,354.2 M120.6,354.9c4,0,4.4,0.6,4.4,1.2v5.1
		c0,0.9-1.8,1.1-4.4,1.1c-2.6,0-4.4-0.2-4.4-1.1v-5.1C116.2,355.5,116.6,354.9,120.6,354.9 M127.3,359.3c1.3,0,2.7,0.5,3.8,0.9
		c-0.5,0.1-1,0.3-1.4,0.7c-1.4,1.2-3.1,2.1-5,2.9c-0.6-0.3-1.2-0.7-1.8-1c1.6-0.1,2.8-0.5,2.8-1.7v-1.4c0.2-0.1,0.3-0.2,0.5-0.3
		C126.5,359.3,126.9,359.3,127.3,359.3 M141.7,348.4c1.4-0.6,3.1-0.7,4.6-0.7c1,0,1.9-0.1,2.5-0.3l0.1,0l0,0.1
		c-0.4,0.6-1.6,2.2-3.4,3.6c-0.9,0.7-1.8,1.2-2.8,1.6c-1.1,0.5-2.3,0.7-3.5,0.7c-0.8,0-1.5-0.1-2.3-0.3c2.3-0.5,5.2-1.6,6.5-2.5
		c-1.3,0.5-5.1,1.9-7.3,2.1c0.3-0.3,0.8-0.9,1.6-1.6c0.2-0.2,0.5-0.4,0.7-0.6C139.3,349.7,140.4,348.9,141.7,348.4 M136.7,345.6
		c0.3-1.3,0.9-2.5,1.7-3.6c1.6-2.3,3.7-3.6,4.6-4.1l0.1,0l0,0.1c-0.2,0.6-0.3,1.5-0.4,2.5c-0.2,1.5-0.3,3.2-1,4.5
		c-1.3,2.6-3.6,4.5-4.4,5.2c0.4-2,2.1-5.8,2.6-6.9c-0.5,0.6-2.4,4.1-3.1,6.5C136.4,348.3,136.4,346.9,136.7,345.6 M131.9,350.6
		c-0.1,0.6-0.5,1.2-1.2,1.8c-0.6,0.5-1.5,0.8-2.4,1.2c-1.1,0.4-2.3,0.9-2.9,1.7c-0.4-0.6-1.5-0.9-3.4-1c0.1-1.8,0.8-2.3,1.6-2.9
		l0.2-0.2l0,0c0.7-0.2,1.5-0.5,2.4-0.8c0.5-0.2,1.1-0.5,1.5-0.7c1-0.5,1.8-0.9,2.5-0.9c0.5,0,0.8,0.2,1.2,0.5
		C131.6,349.4,131.9,349.9,131.9,350.6 M116.3,347.1L116.3,347.1c0.9,0.1,1.6,0.3,2.3,0.5c0.7,0.2,1.4,0.4,2.1,0.4v0c0,0,0,0,0,0
		c0,0,0,0,0,0v0c0.7,0,1.3-0.2,2-0.4c0.7-0.2,1.4-0.4,2.3-0.5h0.1c0.9,0,3,0.6,4.5,1.2c-0.7,0.1-1.4,0.5-2.1,0.8
		c-0.5,0.2-1,0.5-1.5,0.7c-2.6,1-4,1.3-5.4,1.3c-1.4,0-2.9-0.4-5.4-1.3c-0.5-0.2-1-0.4-1.5-0.7c-0.7-0.3-1.4-0.7-2.1-0.8
		C113.2,347.6,115.4,347.1,116.3,347.1 M113,353.6c-0.9-0.3-1.8-0.7-2.4-1.2c-0.7-0.6-1.1-1.2-1.2-1.8c-0.1-0.7,0.3-1.2,0.3-1.3
		c0.3-0.4,0.7-0.5,1.2-0.5c0.7,0,1.5,0.4,2.5,0.8c0.5,0.2,1,0.5,1.5,0.7c0.9,0.3,1.7,0.6,2.4,0.8v0l0.2,0.2c0.8,0.6,1.5,1.2,1.6,2.9
		c-1.9,0.1-3,0.4-3.5,0.9C115.3,354.4,114.1,354,113,353.6 M98.6,340.3c-0.1-1-0.2-1.9-0.4-2.5l0-0.1l0.1,0c0.8,0.5,3,1.9,4.6,4.1
		c0.8,1.2,1.4,2.4,1.7,3.6c0.3,1.3,0.3,2.7,0,4.1c-0.7-2.5-2.6-5.9-3.1-6.5c0.5,1.1,2.2,4.9,2.6,6.9c-0.9-0.7-3.1-2.6-4.5-5.2
		C99,343.5,98.8,341.8,98.6,340.3 M102.1,353.3c-1.2,0-2.4-0.2-3.5-0.7c-1-0.4-1.9-0.9-2.8-1.6c-1.8-1.4-3-3-3.4-3.6l0-0.1l0.1,0
		c0.6,0.2,1.5,0.2,2.5,0.3c1.5,0.1,3.2,0.1,4.6,0.7c1.3,0.5,2.4,1.3,3.3,2.1c0.2,0.2,0.5,0.4,0.7,0.6c0.8,0.7,1.4,1.3,1.6,1.6
		c-2.2-0.2-6-1.6-7.3-2.1c1.4,0.9,4.2,2,6.5,2.5C103.7,353.2,102.9,353.3,102.1,353.3 M113.9,359.3c0.5,0,0.9,0.1,1.3,0.2
		c0.1,0.1,0.3,0.2,0.4,0.3v1.4c0,1.1,1.2,1.5,2.8,1.7c-0.6,0.3-1.2,0.7-1.8,1h0c-1.9-0.9-3.3-1.6-4.8-2.9c-0.4-0.4-0.9-0.6-1.4-0.7
		C111.3,359.7,112.6,359.3,113.9,359.3 M110.2,365L110.2,365c-0.8-0.5-1.6-1-1.9-1.4c-0.6-0.9-0.6-1.8,0-2.3
		c0.3-0.3,0.8-0.5,1.4-0.5c0.6,0,1.2,0.2,1.6,0.6c1.4,1.2,2.8,2,4.6,2.8c-1.3,0.7-2.5,1.3-3.9,2C111.4,365.8,110.8,365.4,110.2,365
		 M112.3,367.5c0.2,0.2,0.3,0.5,0.3,0.8c0.1,0.6-0.2,1.2-0.8,1.9c-1.3-0.2-2.5-0.3-3.6-0.6C109.6,369,111,368.2,112.3,367.5
		 M105.6,364.7c0,0.1,0,0.3,0,0.3l0,0c0.1,1.3-1.2,1.9-3.2,2.7c-1.2,0.5-2.6,1.1-3.3,2c0-1.7-0.1-3.5-0.2-5.1c2-0.7,3.5-1,4.7-1
		c0.5,0,1,0.1,1.3,0.2C105.3,364,105.5,364.3,105.6,364.7z M68.8,365.2c-0.1-0.5-0.1-0.9,0.2-1.4c1.3-2,6.6-4,13.5-5l0.1,0l0.8,3.4
		l-0.1,0c-6.1,2.9-10,4.3-12.3,4.3c-0.5,0-1-0.1-1.3-0.2C69.3,366,68.9,365.7,68.8,365.2 M88.1,368.7c-8.2,4.2-12.4,5.1-14.4,5.1
		c-0.7,0-1.2-0.1-1.7-0.3c-0.5-0.2-0.9-0.6-1-1.1l-1.7-5.7c0.1,0,0.1,0.1,0.2,0.1c0.4,0.2,0.9,0.3,1.6,0.3c3.5,0,9.8-2.9,16.1-6.1
		c8.5-4.3,12.8-5.2,14.9-5.2c1,0,1.6,0.2,1.9,0.4c0.5,0.3,0.7,0.6,0.8,1.2c0.2,1.6,0.5,4.3,0.7,6c-0.1-0.1-0.2-0.1-0.2-0.1
		c-0.4-0.2-0.9-0.3-1.6-0.3C99.9,363,93.1,366.1,88.1,368.7 M99.1,371.4c0-1.4,1.4-2.2,2.9-2.8c0.9,0.4,1.9,0.7,3,1
		c-1.9,0.9-3.9,1.8-5.8,2.6C99.1,372,99.1,371.7,99.1,371.4 M108.4,377.4c-4.1-0.9-7-2.2-8.4-3.7c2.5-1.1,4.9-2.3,7.3-3.5
		c1.2,0.3,2.6,0.5,4,0.7c-0.1,0.1-0.2,0.2-0.3,0.3C108.4,373.6,107.8,375.4,108.4,377.4 M110.3,379.6l-0.1,0.1l-0.1-0.1
		c-1.9-3.3-2-4.9,1.4-8.1c1.3-1.2,1.9-2.3,1.8-3.3c0-0.4-0.2-0.7-0.4-1c1.4-0.7,2.7-1.5,4-2.2c0.9,0.7,1.4,1.5,1.4,2.3
		c0.1,1.6-1.8,3.2-3.5,4.6c-1.5,1.3-2.8,2.4-2.7,3.5c0.1,0.5,0.4,0.8,1,1.2l0.1,0.1l-0.1,0.1C111.7,377.4,110.8,378.3,110.3,379.6
		 M120.6,378.7c-2.7,0-5.7-0.2-8.4-0.6c0.8-0.6,1.6-0.9,2.1-1.1l0.8-0.3l-0.8-0.3c-0.9-0.3-1.3-0.7-1.4-1.1
		c-0.1-0.7,1.1-1.8,2.4-2.9v0c0.4-0.3,0.8-0.7,1.2-1c1.4,0.1,2.8,0.1,4.1,0.1h0h0c1.4,0,2.8,0,4.2-0.1c0.4,0.4,0.8,0.7,1.2,1l0,0
		c1.3,1.1,2.5,2.2,2.4,2.9c-0.1,0.4-0.5,0.7-1.4,1.1l-0.8,0.3l0.8,0.3c0.5,0.2,1.4,0.5,2.1,1.1C126.4,378.5,123.4,378.7,120.6,378.7
		 M131.2,379.6l-0.1,0.1l-0.1-0.1c-0.5-1.3-1.5-2.2-2.9-2.9l-0.1-0.1l0.1-0.1c0.6-0.3,0.9-0.7,1-1.2c0.2-1.1-1.1-2.2-2.7-3.5
		c-0.4-0.4-0.9-0.8-1.3-1.2v0h0c-1.2-1.1-2.1-2.2-2.1-3.4c0-0.8,0.5-1.5,1.4-2.2c1.3,0.8,2.7,1.5,4,2.3c-0.2,0.3-0.3,0.6-0.3,1
		c-0.1,1,0.5,2.1,1.8,3.3C133.2,374.7,133.1,376.3,131.2,379.6 M139.4,375.1c-1.6,0.9-3.7,1.7-6.5,2.3c0.6-2.1,0-3.8-2.7-6.3
		c-0.1-0.1-0.2-0.2-0.3-0.3c1.4-0.2,2.7-0.4,3.9-0.7c2.4,1.2,4.8,2.4,7.3,3.5C140.7,374.2,140.2,374.6,139.4,375.1 M136.2,369.6
		c1.1-0.3,2.1-0.6,3-1c1.5,0.6,2.8,1.3,2.9,2.5v0.2v0h0c0,0,0,0.1,0,0.1c0,0.3,0,0.6-0.1,0.8C140.1,371.4,138.1,370.5,136.2,369.6
		 M170.2,372.4c-0.1,0.5-0.5,0.8-1,1.1c-0.4,0.2-1,0.3-1.7,0.3c-2.1,0-6.2-0.9-14.4-5.1c-5-2.6-11.8-5.7-15.5-5.7
		c-0.7,0-1.2,0.1-1.6,0.3c-0.1,0-0.2,0.1-0.2,0.1c0.2-2.1,0.5-4.6,0.7-6c0.1-0.5,0.3-0.9,0.8-1.2c0.3-0.2,0.9-0.4,1.9-0.4
		c2.1,0,6.4,0.9,14.9,5.2c6.3,3.2,12.6,6.1,16.1,6.1c0.6,0,1.2-0.1,1.6-0.3c0.1,0,0.1-0.1,0.2-0.1L170.2,372.4z M172.4,365.2
		c-0.1,0.5-0.5,0.8-0.9,1.1c-0.4,0.1-0.8,0.2-1.3,0.2c-2.3,0-6.2-1.4-12.3-4.3l-0.1,0l0.8-3.4l0.1,0c6.9,1,12.2,3,13.5,5
		C172.5,364.2,172.6,364.7,172.4,365.2"/>
</g>
</svg>
