<svg width="2692" height="638" viewBox="0 0 2692 638" fill="none" xmlns="http://www.w3.org/2000/svg">
<path d="M805.2 314.6H944.8V358.6H805.2V314.6ZM809.6 465.8H757.6V185.8H962V229.4H809.6V465.8Z" fill="black"/>
<path d="M1007.49 465.8V169H1057.49V465.8H1007.49Z" fill="black"/>
<path d="M1219.11 468.6C1197.25 468.6 1177.78 463.933 1160.71 454.6C1143.65 445 1130.18 431.933 1120.31 415.4C1110.45 398.867 1105.51 380.067 1105.51 359C1105.51 337.667 1110.45 318.867 1120.31 302.6C1130.18 286.067 1143.65 273.133 1160.71 263.8C1177.78 254.467 1197.25 249.8 1219.11 249.8C1241.25 249.8 1260.85 254.467 1277.91 263.8C1295.25 273.133 1308.71 285.933 1318.31 302.2C1328.18 318.467 1333.11 337.4 1333.11 359C1333.11 380.067 1328.18 398.867 1318.31 415.4C1308.71 431.933 1295.25 445 1277.91 454.6C1260.85 463.933 1241.25 468.6 1219.11 468.6ZM1219.11 425.8C1231.38 425.8 1242.31 423.133 1251.91 417.8C1261.51 412.467 1268.98 404.733 1274.31 394.6C1279.91 384.467 1282.71 372.6 1282.71 359C1282.71 345.133 1279.91 333.267 1274.31 323.4C1268.98 313.267 1261.51 305.533 1251.91 300.2C1242.31 294.867 1231.51 292.2 1219.51 292.2C1207.25 292.2 1196.31 294.867 1186.71 300.2C1177.38 305.533 1169.91 313.267 1164.31 323.4C1158.71 333.267 1155.91 345.133 1155.91 359C1155.91 372.6 1158.71 384.467 1164.31 394.6C1169.91 404.733 1177.38 412.467 1186.71 417.8C1196.31 423.133 1207.11 425.8 1219.11 425.8Z" fill="black"/>
<path d="M1478.92 468.6C1456.52 468.6 1436.52 463.933 1418.92 454.6C1401.59 445 1387.99 431.933 1378.12 415.4C1368.26 398.867 1363.32 380.067 1363.32 359C1363.32 337.667 1368.26 318.867 1378.12 302.6C1387.99 286.067 1401.59 273.133 1418.92 263.8C1436.52 254.467 1456.52 249.8 1478.92 249.8C1499.72 249.8 1517.99 254.067 1533.72 262.6C1549.72 270.867 1561.86 283.133 1570.12 299.4L1531.72 321.8C1525.32 311.667 1517.46 304.2 1508.12 299.4C1499.06 294.6 1489.19 292.2 1478.52 292.2C1466.26 292.2 1455.19 294.867 1445.32 300.2C1435.46 305.533 1427.72 313.267 1422.12 323.4C1416.52 333.267 1413.72 345.133 1413.72 359C1413.72 372.867 1416.52 384.867 1422.12 395C1427.72 404.867 1435.46 412.467 1445.32 417.8C1455.19 423.133 1466.26 425.8 1478.52 425.8C1489.19 425.8 1499.06 423.4 1508.12 418.6C1517.46 413.8 1525.32 406.333 1531.72 396.2L1570.12 418.6C1561.86 434.6 1549.72 447 1533.72 455.8C1517.99 464.333 1499.72 468.6 1478.92 468.6Z" fill="black"/>
<path d="M1652.19 418.2L1653.39 355.4L1764.99 252.2H1824.99L1730.19 347.4L1703.79 369.4L1652.19 418.2ZM1611.39 465.8V169H1661.39V465.8H1611.39ZM1772.59 465.8L1694.59 369.4L1726.19 329.4L1833.39 465.8H1772.59Z" fill="black"/>
<path d="M1870.49 465.8V185.8H1913.29L2035.69 390.2H2013.29L2133.69 185.8H2176.49L2176.89 465.8H2127.69L2127.29 263H2137.69L2035.29 433.8H2012.09L1908.09 263H1920.09V465.8H1870.49Z" fill="black"/>
<path d="M2309.32 465.8V229.8H2216.52V185.8H2454.12V229.8H2361.32V465.8H2309.32Z" fill="black"/>
<path d="M2493.15 465.8V185.8H2545.15V421.8H2691.55V465.8H2493.15Z" fill="black"/>
<circle cx="319" cy="319" r="319" fill="black"/>
<path fill-rule="evenodd" clip-rule="evenodd" d="M383.319 306.868H255.758H255.758V306.868L219.803 368.242H255.758H291.713H347.364H383.319H419.274L383.319 306.868Z" fill="#FF9128"/>
<path fill-rule="evenodd" clip-rule="evenodd" d="M212.246 403.21C212.246 444.896 236.139 481.001 270.977 498.578C274.931 511.541 283.989 522.277 295.81 528.445C300.09 536.717 308.725 542.371 318.682 542.371C328.459 542.371 336.963 536.919 341.319 528.888C353.565 522.8 362.972 511.857 367.023 498.578C401.861 481.001 425.753 444.896 425.753 403.21L212.246 403.21Z" fill="#FF9128"/>
<path fill-rule="evenodd" clip-rule="evenodd" d="M248.194 265.867L175.473 390.413C163.549 410.835 137.327 417.723 116.905 405.799C96.4833 393.875 89.5946 367.654 101.519 347.232L203.269 172.969C214.905 119.761 262.301 79.9283 319 79.9283C374.699 79.9283 421.42 118.369 434.082 170.167L537.606 347.468C549.53 367.89 542.642 394.112 522.22 406.036C501.798 417.96 475.577 411.071 463.652 390.649L390.793 265.867H248.194Z" fill="#FF9128"/>
</svg>
